<svg width="299" height="106" viewBox="0 0 299 106" fill="none" xmlns="http://www.w3.org/2000/svg">
<path d="M16.7957 0.76V22H13.8857V3.34H3.71574V22H0.805742V0.76H16.7957ZM43.3746 11.35C43.3746 12.99 43.0946 14.5 42.5346 15.88C41.9746 17.24 41.1946 18.42 40.1946 19.42C39.1946 20.4 38.0046 21.17 36.6246 21.73C35.2646 22.27 33.7846 22.54 32.1846 22.54C30.5846 22.54 29.0946 22.27 27.7146 21.73C26.3546 21.17 25.1746 20.4 24.1746 19.42C23.1746 18.42 22.3946 17.24 21.8346 15.88C21.2746 14.5 20.9946 12.99 20.9946 11.35C20.9946 9.71 21.2746 8.21 21.8346 6.85C22.3946 5.49 23.1746 4.32 24.1746 3.34C25.1746 2.36 26.3546 1.6 27.7146 1.06C29.0946 0.5 30.5846 0.22 32.1846 0.22C33.7846 0.22 35.2646 0.5 36.6246 1.06C38.0046 1.6 39.1946 2.36 40.1946 3.34C41.1946 4.32 41.9746 5.49 42.5346 6.85C43.0946 8.21 43.3746 9.71 43.3746 11.35ZM40.2846 11.35C40.2846 10.19 40.0946 9.1 39.7146 8.08C39.3346 7.04 38.7946 6.13 38.0946 5.35C37.3946 4.57 36.5446 3.95 35.5446 3.49C34.5446 3.03 33.4246 2.8 32.1846 2.8C30.9446 2.8 29.8246 3.03 28.8246 3.49C27.8246 3.95 26.9746 4.57 26.2746 5.35C25.5746 6.13 25.0346 7.04 24.6546 8.08C24.2746 9.1 24.0846 10.19 24.0846 11.35C24.0846 12.53 24.2746 13.64 24.6546 14.68C25.0346 15.72 25.5746 16.63 26.2746 17.41C26.9746 18.19 27.8246 18.81 28.8246 19.27C29.8246 19.71 30.9446 19.93 32.1846 19.93C33.4246 19.93 34.5446 19.71 35.5446 19.27C36.5446 18.81 37.3946 18.19 38.0946 17.41C38.7946 16.63 39.3346 15.72 39.7146 14.68C40.0946 13.64 40.2846 12.53 40.2846 11.35ZM47.5929 22V0.76H50.5029V9.46C50.9829 9.46 51.4429 9.48 51.8829 9.52C52.3429 9.54 52.7929 9.57 53.2329 9.61L60.9129 0.76H64.0929L56.2029 10.3C58.5429 11.1 60.3729 12.46 61.6929 14.38C63.0129 16.3 63.9329 18.84 64.4529 22H61.2429C60.9429 20.24 60.5129 18.72 59.9529 17.44C59.4129 16.16 58.7129 15.12 57.8529 14.32C56.9929 13.5 55.9529 12.91 54.7329 12.55C53.5329 12.17 52.1229 12 50.5029 12.04V22H47.5929ZM69.1408 22H65.9608L75.0808 0.76H77.9008L86.9608 22H83.6908L81.5308 16.78H71.2708L69.1408 22ZM72.2308 14.26H80.5708L76.4308 4L72.2308 14.26ZM93.3218 9.79H94.8518C95.5318 9.79 96.1718 9.72 96.7718 9.58C97.3918 9.44 97.9218 9.23 98.3618 8.95C98.8218 8.65 99.1818 8.28 99.4418 7.84C99.7018 7.38 99.8318 6.84 99.8318 6.22C99.8318 5.08 99.4518 4.21 98.6918 3.61C97.9518 2.99 96.9718 2.68 95.7518 2.68C94.7918 2.68 93.9618 2.93 93.2618 3.43C92.5818 3.91 92.0618 4.57 91.7018 5.41L89.3018 4.09C89.9218 2.83 90.8018 1.87 91.9418 1.21C93.0818 0.55 94.4318 0.22 95.9918 0.22C96.9718 0.22 97.8818 0.349999 98.7218 0.609998C99.5618 0.849999 100.292 1.21 100.912 1.69C101.532 2.17 102.012 2.77 102.352 3.49C102.692 4.21 102.862 5.04 102.862 5.98C102.862 6.62 102.732 7.21 102.472 7.75C102.212 8.29 101.882 8.76 101.482 9.16C101.082 9.56 100.622 9.9 100.102 10.18C99.6018 10.46 99.1018 10.66 98.6018 10.78V10.84C99.1818 10.9 99.7818 11.04 100.402 11.26C101.022 11.46 101.592 11.77 102.112 12.19C102.632 12.59 103.062 13.11 103.402 13.75C103.742 14.37 103.912 15.14 103.912 16.06C103.912 17.06 103.702 17.96 103.282 18.76C102.882 19.56 102.322 20.24 101.602 20.8C100.882 21.36 100.032 21.79 99.0518 22.09C98.0918 22.39 97.0618 22.54 95.9618 22.54C94.9618 22.54 94.0618 22.42 93.2618 22.18C92.4818 21.96 91.7918 21.64 91.1918 21.22C90.5918 20.8 90.0718 20.3 89.6318 19.72C89.2118 19.14 88.8518 18.5 88.5518 17.8L91.1018 16.6C91.5418 17.68 92.1418 18.53 92.9018 19.15C93.6818 19.77 94.7618 20.08 96.1418 20.08C97.6818 20.08 98.8718 19.71 99.7118 18.97C100.552 18.23 100.972 17.26 100.972 16.06C100.972 15.32 100.822 14.7 100.522 14.2C100.222 13.7 99.7918 13.29 99.2318 12.97C98.6918 12.65 98.0418 12.42 97.2818 12.28C96.5218 12.14 95.6818 12.07 94.7618 12.07H93.3218V9.79ZM109.014 22H105.834L114.954 0.76H117.774L126.834 22H123.564L121.404 16.78H111.144L109.014 22ZM112.104 14.26H120.444L116.304 4L112.104 14.26ZM136.975 22H134.065V3.31H127.225V0.76H143.815V3.31H136.975V22ZM146.792 0.76H149.702V9.19H152.972C154.092 9.19 155.112 9.33 156.032 9.61C156.972 9.89 157.782 10.3 158.462 10.84C159.142 11.36 159.662 12.01 160.022 12.79C160.402 13.57 160.592 14.47 160.592 15.49C160.592 16.51 160.402 17.43 160.022 18.25C159.642 19.05 159.112 19.73 158.432 20.29C157.752 20.83 156.942 21.25 156.002 21.55C155.062 21.85 154.032 22 152.912 22H146.792V0.76ZM149.702 11.71V19.48H152.942C154.522 19.48 155.702 19.11 156.482 18.37C157.262 17.63 157.652 16.69 157.652 15.55C157.652 14.37 157.252 13.44 156.452 12.76C155.672 12.06 154.502 11.71 152.942 11.71H149.702ZM178.763 19.42C180.263 19.42 181.443 19.1 182.303 18.46C183.183 17.82 183.623 16.92 183.623 15.76C183.623 14.54 183.173 13.64 182.273 13.06C181.393 12.48 180.233 12.19 178.793 12.19H175.073V19.42H178.763ZM172.163 22V0.76H185.003V3.34H175.073V9.61H179.033C180.133 9.61 181.133 9.74 182.033 10C182.953 10.26 183.743 10.65 184.403 11.17C185.063 11.69 185.573 12.33 185.933 13.09C186.293 13.85 186.473 14.74 186.473 15.76C186.473 16.78 186.283 17.68 185.903 18.46C185.523 19.24 184.993 19.9 184.313 20.44C183.653 20.96 182.863 21.35 181.943 21.61C181.023 21.87 180.023 22 178.943 22H172.163ZM212.183 11.35C212.183 12.99 211.903 14.5 211.343 15.88C210.783 17.24 210.003 18.42 209.003 19.42C208.003 20.4 206.813 21.17 205.433 21.73C204.073 22.27 202.593 22.54 200.993 22.54C199.393 22.54 197.903 22.27 196.523 21.73C195.163 21.17 193.983 20.4 192.983 19.42C191.983 18.42 191.203 17.24 190.643 15.88C190.083 14.5 189.803 12.99 189.803 11.35C189.803 9.71 190.083 8.21 190.643 6.85C191.203 5.49 191.983 4.32 192.983 3.34C193.983 2.36 195.163 1.6 196.523 1.06C197.903 0.5 199.393 0.22 200.993 0.22C202.593 0.22 204.073 0.5 205.433 1.06C206.813 1.6 208.003 2.36 209.003 3.34C210.003 4.32 210.783 5.49 211.343 6.85C211.903 8.21 212.183 9.71 212.183 11.35ZM209.093 11.35C209.093 10.19 208.903 9.1 208.523 8.08C208.143 7.04 207.603 6.13 206.903 5.35C206.203 4.57 205.353 3.95 204.353 3.49C203.353 3.03 202.233 2.8 200.993 2.8C199.753 2.8 198.633 3.03 197.633 3.49C196.633 3.95 195.783 4.57 195.083 5.35C194.383 6.13 193.843 7.04 193.463 8.08C193.083 9.1 192.893 10.19 192.893 11.35C192.893 12.53 193.083 13.64 193.463 14.68C193.843 15.72 194.383 16.63 195.083 17.41C195.783 18.19 196.633 18.81 197.633 19.27C198.633 19.71 199.753 19.93 200.993 19.93C202.233 19.93 203.353 19.71 204.353 19.27C205.353 18.81 206.203 18.19 206.903 17.41C207.603 16.63 208.143 15.72 208.523 14.68C208.903 13.64 209.093 12.53 209.093 11.35ZM217.001 22H213.851L222.791 0.76H225.701L234.641 22H231.431L224.201 4.57L217.001 22ZM236.968 0.76H239.878V9.19H243.148C244.268 9.19 245.288 9.33 246.208 9.61C247.148 9.89 247.958 10.3 248.638 10.84C249.318 11.36 249.838 12.01 250.198 12.79C250.578 13.57 250.768 14.47 250.768 15.49C250.768 16.51 250.578 17.43 250.198 18.25C249.818 19.05 249.288 19.73 248.608 20.29C247.928 20.83 247.118 21.25 246.178 21.55C245.238 21.85 244.208 22 243.088 22H236.968V0.76ZM239.878 11.71V19.48H243.118C244.698 19.48 245.878 19.11 246.658 18.37C247.438 17.63 247.828 16.69 247.828 15.55C247.828 14.37 247.428 13.44 246.628 12.76C245.848 12.06 244.678 11.71 243.118 11.71H239.878ZM265.729 19.42V0.76H268.639V19.42H276.409V0.76H279.319V22H254.839V0.76H257.749V19.42H265.729ZM287.513 19.45H298.523V22H284.663V0.76H298.103V3.31H287.513V9.76H297.443V12.22H287.513V19.45Z" fill="black"/>
<path d="M147.939 105.061C148.525 105.646 149.475 105.646 150.061 105.061L159.607 95.5147C160.192 94.9289 160.192 93.9792 159.607 93.3934C159.021 92.8076 158.071 92.8076 157.485 93.3934L149 101.879L140.515 93.3934C139.929 92.8076 138.979 92.8076 138.393 93.3934C137.808 93.9792 137.808 94.9289 138.393 95.5147L147.939 105.061ZM147.5 47L147.5 104L150.5 104L150.5 47L147.5 47Z" fill="black"/>
</svg>
