<svg width="366" height="48" viewBox="0 0 366 48" fill="none" xmlns="http://www.w3.org/2000/svg">
    <path d="M30.05 3.6H32.05V1.6H30.05V3.6ZM30.05 39V41H32.05V39H30.05ZM23.8 39H21.8V41H23.8V39ZM23.8 9H25.8V7H23.8V9ZM8.4 9V7H6.4V9H8.4ZM8.4 39V41H10.4V39H8.4ZM2.15 39H0.15V41H2.15V39ZM2.15 3.6V1.6H0.15V3.6H2.15ZM28.05 3.6V39H32.05V3.6H28.05ZM30.05 37H23.8V41H30.05V37ZM25.8 39V9H21.8V39H25.8ZM23.8 7H8.4V11H23.8V7ZM6.4 9V39H10.4V9H6.4ZM8.4 37H2.15V41H8.4V37ZM4.15 39V3.6H0.15V39H4.15ZM2.15 5.6H30.05V1.6H2.15V5.6ZM38.3316 3.6V1.6H36.3316V3.6H38.3316ZM55.1316 4.2L54.6466 6.14028L54.6657 6.14506L54.6849 6.14946L55.1316 4.2ZM59.2316 6L58.0469 7.6113L58.058 7.61946L58.0692 7.62747L59.2316 6ZM61.9316 9.2L60.1337 10.0759L60.1473 10.1039L60.1618 10.1315L61.9316 9.2ZM61.8816 18.6L60.1108 17.6703L60.1064 17.6788L60.102 17.6874L61.8816 18.6ZM59.0816 21.8L57.9408 20.1573L57.93 20.1648L57.9192 20.1725L59.0816 21.8ZM54.9316 23.65L55.3784 25.5995L55.3976 25.5951L55.4167 25.5903L54.9316 23.65ZM44.5816 24.2V22.2H42.5816V24.2H44.5816ZM44.5816 39V41H46.5816V39H44.5816ZM38.3316 39H36.3316V41H38.3316V39ZM44.5816 19.15H42.5816V21.15H44.5816V19.15ZM52.2816 18.85L51.8478 16.8976H51.8478L52.2816 18.85ZM54.5816 17.9L53.4917 16.2231L53.4718 16.236L53.4523 16.2494L54.5816 17.9ZM56.0816 16.25L54.3292 15.2862L54.3103 15.3205L54.2928 15.3556L56.0816 16.25ZM56.0816 11.45L54.3292 12.4138L54.3398 12.4331L54.3508 12.4521L56.0816 11.45ZM54.5816 9.85L53.5137 11.541L53.5137 11.541L54.5816 9.85ZM52.2816 9L51.9039 10.9641L51.9175 10.9666L52.2816 9ZM44.5816 8.75V6.75H42.5816V8.75H44.5816ZM38.3316 5.6H49.9316V1.6H38.3316V5.6ZM49.9316 5.6C51.6559 5.6 53.2244 5.78475 54.6466 6.14028L55.6167 2.25971C53.8388 1.81525 51.9407 1.6 49.9316 1.6V5.6ZM54.6849 6.14946C56.0623 6.46513 57.1675 6.96471 58.0469 7.6113L60.4164 4.3887C59.0291 3.36862 57.4009 2.6682 55.5784 2.25053L54.6849 6.14946ZM58.0692 7.62747C58.9623 8.2654 59.6449 9.07277 60.1337 10.0759L63.7296 8.32406C62.9517 6.72722 61.8343 5.40126 60.3941 4.37253L58.0692 7.62747ZM60.1618 10.1315C60.6408 11.0416 60.9316 12.2526 60.9316 13.85H64.9316C64.9316 11.7808 64.5558 9.89176 63.7015 8.26851L60.1618 10.1315ZM60.9316 13.85C60.9316 15.4291 60.631 16.6796 60.1108 17.6703L63.6524 19.5297C64.5323 17.8537 64.9316 15.9376 64.9316 13.85H60.9316ZM60.102 17.6874C59.5851 18.6953 58.8712 19.5112 57.9408 20.1573L60.2224 23.4427C61.6921 22.4222 62.8448 21.1047 63.6613 19.5126L60.102 17.6874ZM57.9192 20.1725C56.985 20.8398 55.8393 21.3615 54.4466 21.7097L55.4167 25.5903C57.224 25.1385 58.845 24.4268 60.2441 23.4275L57.9192 20.1725ZM54.4849 21.7005C53.0473 22.03 51.4819 22.2 49.7816 22.2V26.2C51.7481 26.2 53.616 26.0034 55.3784 25.5995L54.4849 21.7005ZM49.7816 22.2H44.5816V26.2H49.7816V22.2ZM42.5816 24.2V39H46.5816V24.2H42.5816ZM44.5816 37H38.3316V41H44.5816V37ZM40.3316 39V3.6H36.3316V39H40.3316ZM44.5816 21.15H49.3316V17.15H44.5816V21.15ZM49.3316 21.15C50.522 21.15 51.6529 21.0385 52.7155 20.8024L51.8478 16.8976C51.1104 17.0615 50.2746 17.15 49.3316 17.15V21.15ZM52.7155 20.8024C53.8155 20.5579 54.8294 20.1538 55.711 19.5506L53.4523 16.2494C53.0672 16.5129 52.5478 16.7421 51.8478 16.8976L52.7155 20.8024ZM55.6716 19.5769C56.616 18.963 57.3673 18.1508 57.8705 17.1444L54.2928 15.3556C54.1293 15.6825 53.8806 15.9703 53.4917 16.2231L55.6716 19.5769ZM57.8341 17.2138C58.3961 16.192 58.6316 15.0447 58.6316 13.85H54.6316C54.6316 14.522 54.5005 14.9746 54.3292 15.2862L57.8341 17.2138ZM58.6316 13.85C58.6316 12.641 58.4033 11.4683 57.8125 10.4479L54.3508 12.4521C54.4934 12.6983 54.6316 13.1257 54.6316 13.85H58.6316ZM57.8341 10.4862C57.3071 9.52801 56.5736 8.74257 55.6496 8.15902L53.5137 11.541C53.8564 11.7574 54.1229 12.0387 54.3292 12.4138L57.8341 10.4862ZM55.6496 8.15902C54.7594 7.59679 53.7419 7.23642 52.6458 7.03343L51.9175 10.9666C52.6213 11.0969 53.1372 11.3032 53.5137 11.541L55.6496 8.15902ZM52.6593 7.03599C51.6492 6.84174 50.5709 6.75 49.4316 6.75V10.75C50.3591 10.75 51.1807 10.8249 51.9039 10.964L52.6593 7.03599ZM49.4316 6.75H44.5816V10.75H49.4316V6.75ZM42.5816 8.75V19.15H46.5816V8.75H42.5816ZM75.0469 33.6H73.0469V35.6H75.0469V33.6ZM92.6469 33.6H94.6469V31.6H92.6469V33.6ZM92.6469 39V41H94.6469V39H92.6469ZM68.9469 39H66.9469V41H68.9469V39ZM68.9469 3.6V1.6H66.9469V3.6H68.9469ZM91.8969 3.6H93.8969V1.6H91.8969V3.6ZM91.8969 9V11H93.8969V9H91.8969ZM75.0469 9V7H73.0469V9H75.0469ZM75.0469 18.2H73.0469V20.2H75.0469V18.2ZM90.8469 18.2H92.8469V16.2H90.8469V18.2ZM90.8469 23.35V25.35H92.8469V23.35H90.8469ZM75.0469 23.35V21.35H73.0469V23.35H75.0469ZM75.0469 35.6H92.6469V31.6H75.0469V35.6ZM90.6469 33.6V39H94.6469V33.6H90.6469ZM92.6469 37H68.9469V41H92.6469V37ZM70.9469 39V3.6H66.9469V39H70.9469ZM68.9469 5.6H91.8969V1.6H68.9469V5.6ZM89.8969 3.6V9H93.8969V3.6H89.8969ZM91.8969 7H75.0469V11H91.8969V7ZM73.0469 9V18.2H77.0469V9H73.0469ZM75.0469 20.2H90.8469V16.2H75.0469V20.2ZM88.8469 18.2V23.35H92.8469V18.2H88.8469ZM90.8469 21.35H75.0469V25.35H90.8469V21.35ZM73.0469 23.35V33.6H77.0469V23.35H73.0469ZM104.177 18.35V16.35H102.177V18.35H104.177ZM113.227 17.05L114.317 18.7269L113.227 17.05ZM113.577 9.3L112.288 10.8286L112.299 10.8383L112.311 10.8479L113.577 9.3ZM105.527 9.15L106.752 10.7314V10.7314L105.527 9.15ZM103.277 12.45L102.494 14.29L104.489 15.1399L105.175 13.0825L103.277 12.45ZM97.8773 10.15L96.0258 9.39375L95.2808 11.2179L97.0936 11.99L97.8773 10.15ZM102.377 4.65L101.3 2.96495V2.96495L102.377 4.65ZM114.477 3.35L113.911 5.26803L113.931 5.27399L113.951 5.27952L114.477 3.35ZM118.277 5.15L117.077 6.75L117.089 6.75882L117.101 6.76747L118.277 5.15ZM120.827 8.2L119.029 9.07493L119.043 9.10447L119.059 9.13351L120.827 8.2ZM121.127 15.4L119.325 14.5324V14.5324L121.127 15.4ZM119.477 17.75L120.892 19.1642V19.1642L119.477 17.75ZM117.227 19.4L118.093 21.203L118.122 21.1892L118.15 21.1744L117.227 19.4ZM114.777 20.3L114.292 18.3597L112.777 18.7384V20.3H114.777ZM114.777 20.4H112.777V22.1901L114.556 22.3878L114.777 20.4ZM117.627 21.05L118.26 19.1526H118.26L117.627 21.05ZM120.377 22.6L119.091 24.1314L119.109 24.1468L119.128 24.1617L120.377 22.6ZM122.427 25.2L120.638 26.0944L120.644 26.1059L120.65 26.1173L122.427 25.2ZM122.127 33.55L120.375 32.5862L120.366 32.6032L120.357 32.6203L122.127 33.55ZM119.227 37L120.455 38.5787L120.461 38.5741L119.227 37ZM114.927 39.15L114.353 37.2343L114.342 37.2376L114.927 39.15ZM104.977 39.25L105.582 37.3435L105.561 37.3368L105.539 37.3305L104.977 39.25ZM101.377 37.55L100.186 39.1562L100.203 39.1688L100.22 39.181L101.377 37.55ZM96.9773 31.45L96.2696 29.5794L94.4431 30.2705L95.0904 32.113L96.9773 31.45ZM102.527 29.35L104.389 28.6198L103.668 26.7801L101.82 27.4794L102.527 29.35ZM105.277 33.3L104.028 34.8617L104.042 34.8728L104.056 34.8836L105.277 33.3ZM115.077 33.15L116.358 34.6864L116.37 34.6761L116.382 34.6655L115.077 33.15ZM114.477 24.45L113.427 26.1521L113.448 26.1651L113.47 26.1776L114.477 24.45ZM104.177 23H102.177V25H104.177V23ZM104.177 20.35H107.777V16.35H104.177V20.35ZM107.777 20.35C110.3 20.35 112.545 19.8788 114.317 18.7269L112.137 15.3731C111.243 15.9545 109.854 16.35 107.777 16.35V20.35ZM114.317 18.7269C116.289 17.4454 117.227 15.4548 117.227 13.1H113.227C113.227 14.2785 112.832 14.9213 112.137 15.3731L114.317 18.7269ZM117.227 13.1C117.227 10.9672 116.481 9.09125 114.844 7.75208L112.311 10.8479C112.874 11.3087 113.227 11.9661 113.227 13.1H117.227ZM114.867 7.77142C113.352 6.49314 111.437 5.95 109.327 5.95V9.95C110.751 9.95 111.669 10.3069 112.288 10.8286L114.867 7.77142ZM109.327 5.95C107.453 5.95 105.737 6.45804 104.303 7.56855L106.752 10.7314C107.384 10.242 108.202 9.95 109.327 9.95V5.95ZM104.303 7.56855C102.917 8.64173 101.955 10.0918 101.38 11.8175L105.175 13.0825C105.533 12.0082 106.071 11.2583 106.752 10.7314L104.303 7.56855ZM104.061 10.61L98.6611 8.30995L97.0936 11.99L102.494 14.29L104.061 10.61ZM99.7289 10.9062C100.549 8.89766 101.79 7.39918 103.455 6.33504L101.3 2.96495C98.8978 4.50082 97.1388 6.66901 96.0258 9.39375L99.7289 10.9062ZM103.455 6.33504C105.11 5.27665 107.17 4.7 109.727 4.7V0.7C106.552 0.7 103.711 1.42335 101.3 2.96495L103.455 6.33504ZM109.727 4.7C111.257 4.7 112.647 4.89474 113.911 5.26803L115.044 1.43196C113.374 0.938588 111.598 0.7 109.727 0.7V4.7ZM113.951 5.27952C115.208 5.62238 116.239 6.12104 117.077 6.75L119.477 3.55C118.183 2.57895 116.68 1.87762 115.004 1.42047L113.951 5.27952ZM117.101 6.76747C117.934 7.373 118.571 8.13377 119.029 9.07493L122.626 7.32507C121.884 5.79955 120.821 4.527 119.454 3.53253L117.101 6.76747ZM119.059 9.13351C119.515 9.99834 119.777 11.0671 119.777 12.4H123.777C123.777 10.5329 123.406 8.80165 122.596 7.26648L119.059 9.13351ZM119.777 12.4C119.777 13.2304 119.616 13.9295 119.325 14.5324L122.929 16.2676C123.506 15.0705 123.777 13.7696 123.777 12.4H119.777ZM119.325 14.5324C118.984 15.2418 118.561 15.8375 118.063 16.3358L120.892 19.1642C121.727 18.3292 122.404 17.3582 122.929 16.2676L119.325 14.5324ZM118.063 16.3358C117.54 16.8585 116.956 17.2869 116.305 17.6256L118.15 21.1744C119.165 20.6465 120.081 19.9748 120.892 19.1642L118.063 16.3358ZM116.362 17.597C115.636 17.9454 114.947 18.1962 114.292 18.3597L115.262 22.2403C116.208 22.0038 117.152 21.6546 118.093 21.203L116.362 17.597ZM112.777 20.3V20.4H116.777V20.3H112.777ZM114.556 22.3878C115.296 22.4699 116.107 22.6515 116.995 22.9474L118.26 19.1526C117.147 18.7818 116.059 18.5301 114.998 18.4122L114.556 22.3878ZM116.995 22.9474C117.748 23.1984 118.444 23.5881 119.091 24.1314L121.664 21.0686C120.644 20.2119 119.507 19.5683 118.26 19.1526L116.995 22.9474ZM119.128 24.1617C119.71 24.6274 120.219 25.256 120.638 26.0944L124.216 24.3056C123.569 23.0106 122.711 21.9059 121.627 21.0383L119.128 24.1617ZM120.65 26.1173C121.001 26.7968 121.227 27.7295 121.227 29H125.227C125.227 27.2705 124.921 25.6699 124.205 24.2827L120.65 26.1173ZM121.227 29C121.227 30.4032 120.927 31.5815 120.375 32.5862L123.88 34.5138C124.794 32.8519 125.227 30.9968 125.227 29H121.227ZM120.357 32.6203C119.793 33.6931 119.014 34.6264 117.994 35.4259L120.461 38.5741C121.908 37.4403 123.061 36.0736 123.898 34.4797L120.357 32.6203ZM117.999 35.4213C117.021 36.1826 115.816 36.7952 114.353 37.2343L115.502 41.0657C117.372 40.5048 119.034 39.684 120.455 38.5787L117.999 35.4213ZM114.342 37.2376C112.918 37.6734 111.351 37.9 109.627 37.9V41.9C111.704 41.9 113.67 41.6266 115.513 41.0624L114.342 37.2376ZM109.627 37.9C108.058 37.9 106.717 37.7035 105.582 37.3435L104.373 41.1565C105.971 41.6632 107.73 41.9 109.627 41.9V37.9ZM105.539 37.3305C104.36 36.9853 103.366 36.5089 102.535 35.919L100.22 39.181C101.455 40.0578 102.862 40.7147 104.416 41.1695L105.539 37.3305ZM102.569 35.9438C101.702 35.3007 100.968 34.5514 100.358 33.6925L97.0963 36.0075C97.9535 37.2153 98.9858 38.266 100.186 39.1562L102.569 35.9438ZM100.358 33.6925C99.7364 32.8161 99.2377 31.85 98.8643 30.787L95.0904 32.113C95.5836 33.5167 96.2517 34.8173 97.0963 36.0075L100.358 33.6925ZM97.6851 33.3206L103.235 31.2206L101.82 27.4794L96.2696 29.5794L97.6851 33.3206ZM100.665 30.0802C101.432 32.0341 102.533 33.6659 104.028 34.8617L106.527 31.7383C105.688 31.0675 104.956 30.0659 104.389 28.6198L100.665 30.0802ZM104.056 34.8836C105.673 36.1315 107.716 36.65 109.977 36.65V32.65C108.305 32.65 107.215 32.2685 106.499 31.7164L104.056 34.8836ZM109.977 36.65C112.457 36.65 114.676 36.0878 116.358 34.6864L113.797 31.6136C113.079 32.2122 111.898 32.65 109.977 32.65V36.65ZM116.382 34.6655C118.069 33.2135 118.877 31.2535 118.877 29H114.877C114.877 30.2132 114.486 31.0198 113.772 31.6345L116.382 34.6655ZM118.877 29C118.877 26.3027 117.792 24.0682 115.485 22.7224L113.47 26.1776C114.363 26.6985 114.877 27.4973 114.877 29H118.877ZM115.528 22.7479C113.499 21.4964 110.745 21 107.527 21V25C110.443 25 112.322 25.4702 113.427 26.1521L115.528 22.7479ZM107.527 21H104.177V25H107.527V21ZM106.177 23V18.35H102.177V23H106.177ZM136.131 33.6H134.131V35.6H136.131V33.6ZM153.731 33.6H155.731V31.6H153.731V33.6ZM153.731 39V41H155.731V39H153.731ZM130.031 39H128.031V41H130.031V39ZM130.031 3.6V1.6H128.031V3.6H130.031ZM152.981 3.6H154.981V1.6H152.981V3.6ZM152.981 9V11H154.981V9H152.981ZM136.131 9V7H134.131V9H136.131ZM136.131 18.2H134.131V20.2H136.131V18.2ZM151.931 18.2H153.931V16.2H151.931V18.2ZM151.931 23.35V25.35H153.931V23.35H151.931ZM136.131 23.35V21.35H134.131V23.35H136.131ZM136.131 35.6H153.731V31.6H136.131V35.6ZM151.731 33.6V39H155.731V33.6H151.731ZM153.731 37H130.031V41H153.731V37ZM132.031 39V3.6H128.031V39H132.031ZM130.031 5.6H152.981V1.6H130.031V5.6ZM150.981 3.6V9H154.981V3.6H150.981ZM152.981 7H136.131V11H152.981V7ZM134.131 9V18.2H138.131V9H134.131ZM136.131 20.2H151.931V16.2H136.131V20.2ZM149.931 18.2V23.35H153.931V18.2H149.931ZM151.931 21.35H136.131V25.35H151.931V21.35ZM134.131 23.35V33.6H138.131V23.35H134.131ZM160.011 3.6V1.6H158.011V3.6H160.011ZM166.261 3.6H168.261V1.6H166.261V3.6ZM166.261 17.9H164.261V19.9H166.261V17.9ZM182.611 17.9V19.9H184.611V17.9H182.611ZM182.611 3.6V1.6H180.611V3.6H182.611ZM188.861 3.6H190.861V1.6H188.861V3.6ZM188.861 39V41H190.861V39H188.861ZM182.611 39H180.611V41H182.611V39ZM182.611 23.3H184.611V21.3H182.611V23.3ZM166.261 23.3V21.3H164.261V23.3H166.261ZM166.261 39V41H168.261V39H166.261ZM160.011 39H158.011V41H160.011V39ZM160.011 5.6H166.261V1.6H160.011V5.6ZM164.261 3.6V17.9H168.261V3.6H164.261ZM166.261 19.9H182.611V15.9H166.261V19.9ZM184.611 17.9V3.6H180.611V17.9H184.611ZM182.611 5.6H188.861V1.6H182.611V5.6ZM186.861 3.6V39H190.861V3.6H186.861ZM188.861 37H182.611V41H188.861V37ZM184.611 39V23.3H180.611V39H184.611ZM182.611 21.3H166.261V25.3H182.611V21.3ZM164.261 23.3V39H168.261V23.3H164.261ZM166.261 37H160.011V41H166.261V37ZM162.011 39V3.6H158.011V39H162.011ZM210.57 39V41H212.57V39H210.57ZM204.27 39H202.27V41H204.27V39ZM204.27 9H206.27V7H204.27V9ZM193.42 9H191.42V11H193.42V9ZM193.42 3.6V1.6H191.42V3.6H193.42ZM221.42 3.6H223.42V1.6H221.42V3.6ZM221.42 9V11H223.42V9H221.42ZM210.57 9V7H208.57V9H210.57ZM210.57 37H204.27V41H210.57V37ZM206.27 39V9H202.27V39H206.27ZM204.27 7H193.42V11H204.27V7ZM195.42 9V3.6H191.42V9H195.42ZM193.42 5.6H221.42V1.6H193.42V5.6ZM219.42 3.6V9H223.42V3.6H219.42ZM221.42 7H210.57V11H221.42V7ZM208.57 9V39H212.57V9H208.57ZM228.528 39V41H229.893L230.391 39.7288L228.528 39ZM221.678 39L219.838 38.2175L218.655 41H221.678V39ZM236.728 3.6V1.6H235.405L234.888 2.8175L236.728 3.6ZM242.828 3.6L244.671 2.82191L244.155 1.6H242.828V3.6ZM257.778 39V41H260.794L259.621 38.2219L257.778 39ZM250.778 39L248.924 39.7487L249.429 41H250.778V39ZM247.528 30.95L249.383 30.2013L248.878 28.95H247.528V30.95ZM231.678 30.95V28.95H230.313L229.816 30.2212L231.678 30.95ZM233.628 25.75L231.77 25.0104L230.679 27.75H233.628V25.75ZM245.628 25.75V27.75H248.559L247.491 25.021L245.628 25.75ZM239.678 10.55L241.541 9.82097L239.694 5.10286L237.82 9.81038L239.678 10.55ZM228.528 37H221.678V41H228.528V37ZM223.519 39.7825L238.569 4.3825L234.888 2.8175L219.838 38.2175L223.519 39.7825ZM236.728 5.6H242.828V1.6H236.728V5.6ZM240.986 4.37809L255.936 39.7781L259.621 38.2219L244.671 2.82191L240.986 4.37809ZM257.778 37H250.778V41H257.778V37ZM252.633 38.2513L249.383 30.2013L245.674 31.6987L248.924 39.7487L252.633 38.2513ZM247.528 28.95H231.678V32.95H247.528V28.95ZM229.816 30.2212L226.666 38.2712L230.391 39.7288L233.541 31.6788L229.816 30.2212ZM233.628 27.75H245.628V23.75H233.628V27.75ZM247.491 25.021L241.541 9.82097L237.816 11.279L243.766 26.479L247.491 25.021ZM237.82 9.81038L231.77 25.0104L235.486 26.4896L241.536 11.2896L237.82 9.81038ZM261.769 39H259.769V41H261.769V39ZM261.769 3.6V1.6H259.769V3.6H261.769ZM268.019 3.6H270.019V1.6H268.019V3.6ZM268.019 33.6H266.019V35.6H268.019V33.6ZM283.719 33.6V35.6H285.719V33.6H283.719ZM283.719 3.6V1.6H281.719V3.6H283.719ZM289.969 3.6H291.969V1.6H289.969V3.6ZM289.969 33.6H287.969V35.6H289.969V33.6ZM294.019 33.6H296.019V31.6H294.019V33.6ZM294.019 45.95V47.95H296.019V45.95H294.019ZM288.569 45.95H286.569V47.95H288.569V45.95ZM288.569 39H290.569V37H288.569V39ZM263.769 39V3.6H259.769V39H263.769ZM261.769 5.6H268.019V1.6H261.769V5.6ZM266.019 3.6V33.6H270.019V3.6H266.019ZM268.019 35.6H283.719V31.6H268.019V35.6ZM285.719 33.6V3.6H281.719V33.6H285.719ZM283.719 5.6H289.969V1.6H283.719V5.6ZM287.969 3.6V33.6H291.969V3.6H287.969ZM289.969 35.6H294.019V31.6H289.969V35.6ZM292.019 33.6V45.95H296.019V33.6H292.019ZM294.019 43.95H288.569V47.95H294.019V43.95ZM290.569 45.95V39H286.569V45.95H290.569ZM288.569 37H261.769V41H288.569V37ZM305.863 30.2V32.2H306.945L307.537 31.2948L305.863 30.2ZM323.263 3.6V1.6H322.182L321.59 2.50516L323.263 3.6ZM330.563 3.6H332.563V1.6H330.563V3.6ZM330.563 39V41H332.563V39H330.563ZM324.313 39H322.313V41H324.313V39ZM324.313 12.4H326.313V10.4H324.313V12.4ZM324.213 12.4V10.4H323.133L322.541 11.303L324.213 12.4ZM306.763 39V41H307.843L308.436 40.097L306.763 39ZM299.513 39H297.513V41H299.513V39ZM299.513 3.6V1.6H297.513V3.6H299.513ZM305.763 3.6H307.763V1.6H305.763V3.6ZM305.763 30.2H303.763V32.2H305.763V30.2ZM307.537 31.2948L324.937 4.69484L321.59 2.50516L304.19 29.1052L307.537 31.2948ZM323.263 5.6H330.563V1.6H323.263V5.6ZM328.563 3.6V39H332.563V3.6H328.563ZM330.563 37H324.313V41H330.563V37ZM326.313 39V12.4H322.313V39H326.313ZM324.313 10.4H324.213V14.4H324.313V10.4ZM322.541 11.303L305.091 37.903L308.436 40.097L325.886 13.497L322.541 11.303ZM306.763 37H299.513V41H306.763V37ZM301.513 39V3.6H297.513V39H301.513ZM299.513 5.6H305.763V1.6H299.513V5.6ZM303.763 3.6V30.2H307.763V3.6H303.763ZM305.763 32.2H305.863V28.2H305.763V32.2ZM357.719 9H359.719V7H357.719V9ZM346.269 10.25L347.261 11.9865L347.276 11.9777L347.292 11.9686L346.269 10.25ZM346.219 17.7L347.319 16.0297L346.219 17.7ZM357.719 19.05V21.05H359.719V19.05H357.719ZM345.469 22.15H347.469V20.4557L345.798 20.1772L345.469 22.15ZM339.669 19.5L338.271 20.9308L338.288 20.9472L338.305 20.9632L339.669 19.5ZM337.519 13.85H339.519V13.84L339.519 13.83L337.519 13.85ZM341.269 6.25L342.398 7.90062L342.403 7.89746L341.269 6.25ZM363.969 3.6H365.969V1.6H363.969V3.6ZM363.969 39V41H365.969V39H363.969ZM357.719 39H355.719V41H357.719V39ZM357.719 24.45H359.719V22.45H357.719V24.45ZM349.919 25.3L349.12 23.4666L349.919 25.3ZM346.469 27.9L344.95 26.5984L346.469 27.9ZM343.969 32.45L342.085 31.7773L342.082 31.7871L342.078 31.797L343.969 32.45ZM342.619 39V41H344.419L344.608 39.2094L342.619 39ZM335.819 39L333.823 38.8733L333.688 41H335.819V39ZM336.869 33.2L338.773 33.8109L338.776 33.8006L336.869 33.2ZM338.969 28.4L337.257 27.3651L337.25 27.377L338.969 28.4ZM341.919 24.7L343.288 26.1577H343.288L341.919 24.7ZM345.469 22.25L346.325 24.0575L347.469 23.5157V22.25H345.469ZM357.719 7H352.719V11H357.719V7ZM352.719 7C349.701 7 347.112 7.42028 345.246 8.53141L347.292 11.9686C348.225 11.4131 349.936 11 352.719 11V7ZM345.276 8.51351C343.184 9.70918 342.169 11.6991 342.169 14.1H346.169C346.169 12.9676 346.553 12.3908 347.261 11.9865L345.276 8.51351ZM342.169 14.1C342.169 16.3421 343.251 18.1402 345.119 19.3703L347.319 16.0297C346.453 15.4598 346.169 14.8579 346.169 14.1H342.169ZM345.119 19.3703C346.984 20.5984 349.636 21.05 352.719 21.05V17.05C349.868 17.05 348.187 16.6015 347.319 16.0297L345.119 19.3703ZM352.719 21.05H357.719V17.05H352.719V21.05ZM359.719 19.05V9H355.719V19.05H359.719ZM345.798 20.1772C343.701 19.8278 342.155 19.0832 341.032 18.0368L338.305 20.9632C340.116 22.6502 342.436 23.6722 345.14 24.1228L345.798 20.1772ZM341.066 18.0692C340.088 17.1133 339.519 15.7834 339.519 13.85H335.519C335.519 16.6499 336.383 19.0867 338.271 20.9308L341.066 18.0692ZM339.519 13.83C339.491 11.096 340.469 9.22038 342.398 7.90061L340.139 4.59938C337.002 6.74629 335.48 9.93731 335.519 13.87L339.519 13.83ZM342.403 7.89746C344.508 6.44855 347.667 5.6 352.119 5.6V1.6C347.237 1.6 343.163 2.51811 340.135 4.60254L342.403 7.89746ZM352.119 5.6H363.969V1.6H352.119V5.6ZM361.969 3.6V39H365.969V3.6H361.969ZM363.969 37H357.719V41H363.969V37ZM359.719 39V24.45H355.719V39H359.719ZM357.719 22.45H354.219V26.45H357.719V22.45ZM354.219 22.45C352.406 22.45 350.697 22.779 349.12 23.4666L350.718 27.1334C351.741 26.6876 352.898 26.45 354.219 26.45V22.45ZM349.12 23.4666C347.52 24.1638 346.13 25.2219 344.95 26.5984L347.987 29.2016C348.807 28.2447 349.717 27.5695 350.718 27.1334L349.12 23.4666ZM344.95 26.5984C343.753 27.9958 342.811 29.744 342.085 31.7773L345.852 33.1227C346.459 31.4226 347.185 30.1375 347.987 29.2016L344.95 26.5984ZM342.078 31.797C341.383 33.8106 340.908 36.1503 340.63 38.7906L344.608 39.2094C344.863 36.7831 345.288 34.7561 345.859 33.103L342.078 31.797ZM342.619 37H335.819V41H342.619V37ZM337.815 39.1267C337.939 37.1697 338.263 35.4012 338.773 33.8109L334.964 32.5891C334.341 34.5321 333.965 36.6303 333.823 38.8733L337.815 39.1267ZM338.776 33.8006C339.304 32.1255 339.944 30.671 340.687 29.423L337.25 27.377C336.326 28.929 335.567 30.6745 334.961 32.5994L338.776 33.8006ZM340.68 29.4348C341.463 28.1405 342.335 27.0535 343.288 26.1577L340.549 23.2423C339.303 24.4132 338.208 25.7928 337.257 27.3652L340.68 29.4348ZM343.288 26.1577C344.248 25.256 345.26 24.5617 346.325 24.0575L344.613 20.4425C343.144 21.1383 341.79 22.0773 340.549 23.2423L343.288 26.1577ZM347.469 22.25V22.15H343.469V22.25H347.469Z" fill="#FF3F45"/>
</svg>
